<svg xmlns="http://www.w3.org/2000/svg" width="933.333" height="933.333" version="1.0" viewBox="0 0 700 700">
  <defs/>
  <path d="M0 350v350h700V0H0v350zm366.5-173.9c38 4.7 64.7 25.5 72.5 56.3 2.3 9 2.6 15.6.8 17.4-.8.8-5.6 1.2-14.8 1.2-16 0-15.9 0-17.9-9.9-3.4-17.5-16.4-29.8-36.6-34.8-9.9-2.4-34.5-2.4-43.5 0-8 2.2-15.8 5.7-20.4 9.2-8.1 6.1-13.2 18.9-12.4 30.9.6 8.9 3.2 14.9 9 20.4 9 8.7 18.7 12.5 46.7 18.3 28.3 5.9 41.2 9.4 51.2 13.8 22.4 9.9 35 22.7 41.6 42.6 2.3 7.1 2.6 9.5 2.6 21.5 0 11.9-.3 14.4-2.6 21.5-9.2 28-33.3 45.1-71.2 50.5-9.3 1.3-34.8 1.3-43.8-.1-13-1.9-23.1-4.9-33.2-9.9-20.6-10.1-33.7-25.7-39.4-47-2.8-10.7-3.6-17.7-2.1-19.5 1.7-2 29.2-2.2 30.7-.3.6.7 1.6 4.1 2.3 7.6 2 9.8 6.2 17.6 13.3 24.7 10 10 21.4 14.6 40.8 16.6 17.9 1.7 38.1-1.1 50-7.1 8.4-4.3 14.3-10.1 18.1-17.8 2.9-5.8 3.3-7.7 3.6-16.6.5-11.9-1.5-18.6-7.5-25.6-8.7-10.2-18.5-14-55.3-22-15.7-3.4-32.5-7.5-37.5-9.1-35-11.6-50.7-31.2-50.7-63.4-.1-22 6.9-38.1 21.9-50.6 18.5-15.5 51.1-22.8 83.8-18.8zm70.2 321.1c2.2 2 2.3 2.9 2.3 14.2 0 10.9-.2 12.2-2.2 14.3l-2.1 2.3H266.6l-2.3-2.2c-2.2-2-2.3-2.9-2.3-14 0-11.6.1-12 2.6-14.3l2.7-2.5h167.1l2.3 2.2z"/>
</svg>
