<svg width="154" height="25" viewBox="0 0 154 25" fill="none" xmlns="http://www.w3.org/2000/svg">
<path d="M24.8867 25H0V0H24.8867V25ZM1.31213 23.6819H23.5746V1.3181H1.31213V23.6819Z" fill="white"/>
<path d="M41.5505 17.0036H39.626L38.8387 14.8507H34.9461L34.1151 17.0036H32.2344L35.7771 7.8208H38.0077L41.5505 17.0036ZM35.5147 13.1811H38.1389L36.8268 9.62221L35.5147 13.1811Z" fill="white"/>
<path d="M51.087 17.0036H49.25V7.8208H51.087V17.0036Z" fill="white"/>
<path d="M63.5052 7.8208C65.692 7.8208 66.8729 8.87528 66.8729 10.6328C66.8729 12.1266 65.8232 13.1811 64.0737 13.3568L66.8729 17.0475H64.6861L62.0181 13.4008H61.4932V17.0475H59.6562V7.8208H63.5052ZM61.4932 9.4904V11.7312H63.5052C64.5111 11.7312 64.9922 11.3797 64.9922 10.5888C64.9922 9.84189 64.4674 9.4904 63.5052 9.4904H61.4932Z" fill="white"/>
<path d="M81.2216 10.1055C80.5218 9.66611 79.647 9.31462 78.641 9.31462C77.6351 9.31462 76.8915 9.71005 76.8915 10.413C76.8915 11.0721 77.6788 11.2918 78.7723 11.4675L79.2971 11.5554C80.9154 11.819 82.2275 12.522 82.2275 14.1037C82.2275 16.1248 80.4343 17.0914 78.4661 17.0914C77.0665 17.0914 75.5794 16.696 74.6172 15.9051L75.5794 14.4113C76.2355 14.9385 77.3289 15.4218 78.5098 15.4218C79.5158 15.4218 80.3031 15.0264 80.3031 14.3234C80.3031 13.7083 79.647 13.4447 78.3786 13.2689L77.81 13.181C76.1917 12.9174 75.0108 12.2144 75.0108 10.5448C75.0108 8.61163 76.7166 7.64502 78.641 7.64502C79.9094 7.64502 81.0029 7.95258 82.14 8.61163L81.2216 10.1055Z" fill="white"/>
<path d="M92.2003 13.6205V16.9596H90.3633V7.8208H94.081C96.2679 7.8208 97.405 8.96316 97.405 10.7206C97.405 12.4781 96.2241 13.6205 94.081 13.6205H92.2003ZM92.2003 9.4904V11.9509H94.081C95.0869 11.9509 95.5681 11.5554 95.5681 10.7206C95.5681 9.88583 95.0432 9.4904 94.081 9.4904H92.2003Z" fill="white"/>
<path d="M113.147 17.0036H111.223L110.436 14.8507H106.543L105.756 17.0036H103.875L107.418 7.8208H109.648L113.147 17.0036ZM107.155 13.1811H109.78L108.467 9.62221L107.155 13.1811Z" fill="white"/>
<path d="M128.72 9.71004L127.146 10.6766C126.621 9.88578 125.79 9.40248 124.784 9.40248C123.122 9.40248 121.897 10.6327 121.897 12.3902C121.897 14.2355 123.166 15.3779 124.784 15.3779C125.79 15.3779 126.621 14.9385 127.146 14.1037L128.633 15.1582C127.802 16.3445 126.446 17.0914 124.784 17.0914C121.985 17.0914 119.973 15.0703 119.973 12.3462C119.973 9.57823 121.941 7.60107 124.784 7.60107C126.49 7.64501 127.977 8.39194 128.72 9.71004Z" fill="white"/>
<path d="M143.636 17.0036H136.812V7.8208H143.592V9.4904H138.649V11.5115H143.373V13.1811H138.649V15.29H143.636V17.0036Z" fill="white"/>
<path d="M147.569 11.4236V8.3041H146.301V7.82079H149.362V8.3041H148.094V11.4236H147.569ZM153.474 11.4236V8.52378L152.337 11.0282H151.768L150.587 8.52378V11.4236H150.062V7.77686H150.806L152.03 10.3691L153.255 7.77686H153.999V11.4236H153.474Z" fill="white"/>
<path d="M20.0769 11.7749H4.8125V13.5763H20.0769V11.7749Z" fill="white"/>
<path d="M5.03125 10.7206L5.68731 9.00708L11.6794 11.3797H6.78075L5.03125 10.7206Z" fill="white"/>
<path d="M6.25391 8.08446L7.65351 9.40256L12.246 11.204L7.47856 6.76636L6.25391 8.08446Z" fill="white"/>
<path d="M8.35547 6.15121L9.97376 5.36035L12.773 11.2479L9.18648 7.86475L8.35547 6.15121Z" fill="white"/>
<path d="M11.0234 5.05272L11.1546 6.98593L13.2541 11.3796L12.8167 4.96484L11.0234 5.05272Z" fill="white"/>
<path d="M13.9084 5.09668L13.3398 6.89809L13.646 11.3796H13.7772L15.6142 5.62392L13.9084 5.09668Z" fill="white"/>
<path d="M15.3528 7.60104L16.5337 6.15112L17.977 7.29348L14.653 11.3796H14.1719L15.3528 7.60104Z" fill="white"/>
<path d="M19.859 14.587L19.203 16.3006L13.2109 13.928L18.1095 13.884L19.859 14.587Z" fill="white"/>
<path d="M18.6327 17.223L17.2331 15.9049L12.6406 14.1035L17.408 18.5411L18.6327 17.223Z" fill="white"/>
<path d="M16.5347 19.1565L14.9164 19.9473L12.1172 14.0598L15.7037 17.4429L16.5347 19.1565Z" fill="white"/>
<path d="M13.8673 20.2549L13.7361 18.3216L11.6367 13.884L12.0741 20.3427L13.8673 20.2549Z" fill="white"/>
<path d="M10.9792 20.2109L11.5915 18.4095L11.2416 13.884H11.1104L9.27344 19.6837L10.9792 20.2109Z" fill="white"/>
<path d="M9.53441 17.7065L8.3535 19.1565L6.91016 18.0141L10.2342 13.928H10.7153L9.53441 17.7065Z" fill="white"/>
</svg>
