<svg width="24" height="23" viewBox="0 0 24 23" fill="none" xmlns="http://www.w3.org/2000/svg">
<path d="M7.99549 7.29858H2.64951C2.24322 7.29858 1.86098 7.48302 1.60705 7.79977C1.35312 8.11518 1.25689 8.52949 1.34376 8.9251L4.01675 20.9535C4.15441 21.5643 4.69569 22 5.3225 22H18.6874C19.3143 22 19.8555 21.5643 19.9919 20.9535L22.6648 8.9251C22.7531 8.52949 22.6555 8.11518 22.4029 7.79977C22.149 7.48302 21.7667 7.29858 21.3604 7.29858H17.3509"/>
<path d="M6.80078 13.2419L8.13727 15.9149C8.36448 16.368 8.82691 16.654 9.33344 16.654H14.6794C15.1859 16.654 15.6484 16.368 15.8756 15.9163L17.2121 13.2433"/>
<path d="M11.0469 12.4545L13.4332 6.72727L15.8196 1"/>
</svg>
