<svg width="17" height="17" viewBox="0 0 17 17" fill="none" xmlns="http://www.w3.org/2000/svg">
<path fill-rule="evenodd" clip-rule="evenodd" d="M14.648 0.0986328H2.52349C1.47924 0.0986328 0.632812 0.942888 0.632812 1.98497V14.1182C0.632812 15.1599 1.47924 16.0045 2.52349 16.0045H14.648C15.6923 16.0045 16.5387 15.1599 16.5387 14.1182V1.98497C16.5387 0.942888 15.6923 0.0986328 14.648 0.0986328ZM12.0664 2.58366C12.0664 2.30947 12.289 2.08691 12.5632 2.08691H14.0543C14.3289 2.08691 14.5514 2.30947 14.5514 2.58366V4.07521C14.5514 4.3494 14.3289 4.57196 14.0543 4.57196H12.5632C12.289 4.57196 12.0664 4.3494 12.0664 4.07521V2.58366ZM8.60545 5.02051C10.2948 5.02051 11.6645 6.38711 11.6645 8.07215C11.6645 9.75762 10.2948 11.1238 8.60545 11.1238C6.91651 11.1238 5.54688 9.75762 5.54688 8.07215C5.54688 6.38711 6.91651 5.02051 8.60545 5.02051ZM15.0487 14.0156C15.0487 14.2898 14.8261 14.5127 14.5515 14.5127H2.62218C2.34756 14.5127 2.125 14.2898 2.125 14.0156V6.55957H4.11329C3.85429 6.93224 3.76665 7.62769 3.76665 8.06934C3.76665 10.731 5.9376 12.8967 8.60528 12.8967C11.2734 12.8967 13.4443 10.731 13.4443 8.06934C13.4443 7.62769 13.3814 6.94309 13.0604 6.55957H15.0487V14.0156Z" fill="white"/>
</svg>
