<svg width="176" height="39" viewBox="0 0 176 39" xmlns="http://www.w3.org/2000/svg">
<path d="M31.9475 27.0037H28.6729L27.3245 23.5223H20.8235L19.4752 27.0037H16.2969L22.2682 12.0435H25.9762L31.9475 27.0037ZM21.8348 20.7467H26.2651L24.05 14.9602L21.8348 20.7467Z"/>
<path d="M55.4945 27.0037H51.7865L46.0078 12.0435H49.2824L53.6646 23.9928L58.0949 12.0435H61.2732L55.4945 27.0037Z"/>
<path d="M98.4036 27.0037H86.9425V23.8517H80.6823L78.3708 27.0037H74.7109L85.7868 12.0435H98.2591V14.772H90.0245V18.1122H97.9702V20.8408H90.0245V24.2751H98.4036V27.0037ZM86.9907 21.076V15.2895L82.753 21.1231H86.9907V21.076Z"/>
<path d="M122.047 11.9963C126.862 11.9963 129.992 14.9602 129.992 19.4764C129.992 23.9927 126.814 26.9565 122.047 26.9565H115.738V11.9963H122.047ZM118.772 14.819V24.2279H121.999C125.225 24.2279 126.814 22.2521 126.814 19.5235C126.814 16.7949 125.225 14.819 121.999 14.819H118.772Z"/>
<path d="M160.812 27.0037H157.537L156.189 23.5223H149.64L148.292 27.0037H145.113L151.085 12.0435H154.793L160.812 27.0037ZM150.699 20.7467H155.13L152.915 14.9602L150.699 20.7467Z"/>
<path d="M175.691 39H0.933594V0H175.691V39ZM3.29323 36.6948H173.379V2.30519H3.29323V36.6948Z"/>
</svg>
