<svg xmlns="http://www.w3.org/2000/svg" width="128" height="25" fill="none" viewBox="0 0 128 25">
  <defs/>
  <path fill="#fff" d="M40.549 17.003h-1.71l-4.646-6.15v6.15h-1.841V7.821h1.71l4.646 6.15v-6.15h1.84v9.182zM57.602 17.003h-1.929l-.79-2.153h-3.9l-.79 2.153H48.31l3.55-9.182h2.236l3.507 9.182zm-6.006-3.822h2.63l-1.315-3.559-1.315 3.559zM71.188 9.534h-2.85v7.47h-1.84v-7.47h-2.85V7.821h7.496v1.713h.044zM86.75 13.313c0 2.548-1.622 3.822-3.945 3.822-2.324 0-3.946-1.274-3.946-3.822V7.82h1.842v5.404c0 1.494.832 2.153 2.104 2.153 1.27 0 2.104-.66 2.104-2.153V7.82h1.84v5.492zM99.158 7.82c2.192 0 3.376 1.055 3.376 2.813 0 1.493-1.052 2.548-2.806 2.724l2.806 3.69h-2.192L97.668 13.4h-.526v3.647H95.3V7.821h3.857zm-2.06 1.67v2.24h2.017c1.008 0 1.49-.35 1.49-1.141 0-.747-.526-1.099-1.49-1.099h-2.017zM118.313 17.003h-1.929l-.789-2.153h-3.901l-.79 2.153h-1.884l3.55-9.182h2.236l3.507 9.182zm-6.05-3.822h2.631l-1.316-3.559-1.315 3.559zM121.556 11.423v-3.12h-1.271v-.482h3.069v.483h-1.272v3.12h-.526zm5.918 0v-2.9l-1.14 2.505h-.569l-1.184-2.504v2.9h-.526V7.776h.745l1.228 2.592 1.227-2.592H128v3.646h-.526zM24.942 25H0V0h24.942v25zM1.316 23.682h22.312V1.318H1.315v22.364z"/>
  <path fill="#fff" d="M6.793 6.02h5.523l6.62 6.634v5.536L6.792 6.02zM6.004 6.635L18.322 18.98h-5.524l-6.794-6.81V6.635zM6.004 13.576l5.436 5.405H6.004v-5.405zM13.719 6.02h5.216v5.272L13.72 6.019z"/>
</svg>
