<svg width="41" height="35" viewBox="0 0 41 35" fill="none" xmlns="http://www.w3.org/2000/svg">
<path d="M40.0012 17.4848C40.0012 17.704 39.9435 17.9193 39.8339 18.1091L30.4646 34.3406C30.355 34.5304 30.1974 34.688 30.0076 34.7976C29.8178 34.9071 29.6025 34.9648 29.3833 34.9648L10.6547 34.9648C10.4356 34.9648 10.2203 34.9071 10.0305 34.7976C9.84066 34.688 9.68304 34.5304 9.57346 34.3406L0.214152 18.1141C0.104567 17.9243 0.0468746 17.709 0.0468746 17.4898C0.0468746 17.2706 0.104567 17.0553 0.214152 16.8655L9.58345 0.634055C9.69303 0.444251 9.85064 0.286639 10.0404 0.177054C10.2302 0.0674696 10.4455 0.00977232 10.6647 0.00976849L29.3933 0.00976681C29.6125 0.0097706 29.8278 0.0674679 30.0176 0.177053C30.2074 0.286637 30.365 0.444249 30.4746 0.634053L39.8339 16.8655C39.9426 17.0538 40.0003 17.2673 40.0012 17.4848ZM28.6617 32.4677L37.3093 17.4848L28.6716 2.50192L11.3839 2.50192L2.73627 17.4848L11.3764 32.4677L28.6617 32.4677Z" fill="#54544F"/>
<path d="M30.6306 33.7163C30.6306 33.9355 30.5729 34.1508 30.4633 34.3406C30.3537 34.5304 30.1961 34.688 30.0063 34.7976C29.8165 34.9072 29.6012 34.9648 29.382 34.9648C29.1629 34.9648 28.9475 34.9071 28.7577 34.7976L0.669829 18.5711C0.520618 18.493 0.388738 18.3856 0.282123 18.2553C0.175507 18.1249 0.0963598 17.9744 0.0494418 17.8126C0.00252378 17.6509 -0.0111952 17.4814 0.00911022 17.3142C0.0294156 17.147 0.0833257 16.9857 0.167597 16.8399C0.251869 16.6941 0.364761 16.5669 0.499481 16.4659C0.634201 16.3648 0.787965 16.2921 0.951524 16.252C1.11508 16.212 1.28505 16.2054 1.45122 16.2327C1.61738 16.2601 1.77629 16.3207 1.9184 16.4111L30.0113 32.63C30.2009 32.7407 30.358 32.8994 30.4667 33.0901C30.5755 33.2808 30.632 33.4968 30.6306 33.7163Z" fill="#54544F"/>
<path d="M30.6406 1.25302C30.6406 1.47218 30.5829 1.68749 30.4733 1.87729C30.3637 2.06709 30.2061 2.2247 30.0163 2.33428L1.9184 18.5707C1.77629 18.6611 1.61738 18.7217 1.45122 18.7491C1.28506 18.7764 1.11508 18.7698 0.951524 18.7298C0.787966 18.6897 0.634201 18.617 0.499481 18.5159C0.364761 18.4149 0.251869 18.2877 0.167598 18.1419C0.0833261 17.9961 0.029416 17.8348 0.00911057 17.6676C-0.0111948 17.5004 0.00252412 17.3309 0.0494421 17.1692C0.0963601 17.0074 0.175508 16.8569 0.282123 16.7265C0.388738 16.5962 0.520618 16.4888 0.669829 16.4107L28.7677 0.179246C28.9575 0.0696614 29.1728 0.0119698 29.392 0.0119698C29.6112 0.0119679 29.8265 0.0696575 30.0163 0.179238C30.2061 0.288819 30.3637 0.446431 30.4733 0.636235C30.5829 0.826038 30.6406 1.04134 30.6406 1.26051L30.6406 1.25302Z" fill="#54544F"/>
<path d="M30.6417 1.25335L30.6417 33.7163C30.6417 34.0474 30.5101 34.365 30.276 34.5991C30.0418 34.8333 29.7242 34.9648 29.3931 34.9648C29.062 34.9648 28.7444 34.8333 28.5102 34.5991C28.2761 34.365 28.1445 34.0474 28.1445 33.7163L28.1445 1.25335C28.1445 0.922211 28.2761 0.604633 28.5102 0.37048C28.7444 0.136326 29.062 0.00477973 29.3931 0.0047797C29.7242 0.00477967 30.0418 0.136326 30.276 0.370479C30.5101 0.604633 30.6417 0.92221 30.6417 1.25335Z" fill="#54544F"/>
<path d="M16.5911 9.37141C16.5905 9.64604 16.4994 9.91282 16.3319 10.1304C16.1644 10.3481 15.9298 10.5044 15.6645 10.5752C15.3991 10.646 15.1178 10.6274 14.8642 10.5222C14.6105 10.4169 14.3986 10.231 14.2613 9.99319L9.58161 1.87996C9.49833 1.73791 9.44397 1.58079 9.42167 1.41765C9.39936 1.2545 9.40954 1.08856 9.45163 0.929365C9.49372 0.770173 9.56688 0.620877 9.6669 0.490075C9.76692 0.359272 9.89183 0.249545 10.0344 0.167212C10.177 0.0848798 10.3345 0.0315665 10.4978 0.0103425C10.6611 -0.0108815 10.827 0.000404231 10.9859 0.0435475C11.1448 0.0866907 11.2936 0.160839 11.4237 0.261725C11.5539 0.362613 11.6628 0.488246 11.7441 0.631389L16.4238 8.74462C16.5338 8.93516 16.5915 9.15139 16.5911 9.37141Z" fill="#54544F"/>
<path d="M16.5878 25.5999C16.5878 25.8191 16.5301 26.0344 16.4205 26.2242L11.7359 34.3399C11.5691 34.6243 11.2966 34.8313 10.9779 34.9156C10.6591 34.9998 10.32 34.9546 10.0344 34.7897C9.7489 34.6249 9.54016 34.3538 9.45378 34.0356C9.36739 33.7174 9.41037 33.378 9.57333 33.0913L14.258 24.9756C14.3954 24.7376 14.6075 24.5516 14.8615 24.4464C15.1154 24.3412 15.3969 24.3228 15.6624 24.3939C15.9279 24.4651 16.1625 24.6218 16.3298 24.8398C16.4971 25.0579 16.5878 25.3251 16.5878 25.5999Z" fill="#54544F"/>
<path d="M39.9982 17.4848C39.9982 17.816 39.8666 18.1335 39.6325 18.3677C39.3983 18.6019 39.0807 18.7334 38.7496 18.7334L29.3853 18.7334C29.0542 18.7334 28.7366 18.6019 28.5024 18.3677C28.2683 18.1335 28.1367 17.816 28.1367 17.4848C28.1367 17.1537 28.2683 16.8361 28.5024 16.6019C28.7366 16.3678 29.0542 16.2363 29.3853 16.2363L38.7496 16.2362C39.0807 16.2362 39.3983 16.3678 39.6325 16.6019C39.8666 16.8361 39.9982 17.1537 39.9982 17.4848Z" fill="#54544F"/>
<path d="M30.6346 17.4839C30.6346 17.703 30.5769 17.9183 30.4673 18.1081C30.3577 18.2979 30.2001 18.4555 30.0103 18.5651L15.9614 26.6809C15.8193 26.7712 15.6603 26.8318 15.4942 26.8592C15.328 26.8865 15.1581 26.8799 14.9945 26.8399C14.8309 26.7998 14.6772 26.7271 14.5424 26.6261C14.4077 26.525 14.2948 26.3978 14.2106 26.252C14.1263 26.1062 14.0724 25.9449 14.0521 25.7777C14.0318 25.6106 14.0455 25.441 14.0924 25.2793C14.1393 25.1176 14.2185 24.967 14.3251 24.8366C14.4317 24.7063 14.5636 24.5989 14.7128 24.5208L28.7617 16.4026C28.9516 16.293 29.1669 16.2353 29.386 16.2353C29.6052 16.2353 29.8205 16.293 30.0103 16.4026C30.2001 16.5122 30.3577 16.6698 30.4673 16.8596C30.5769 17.0494 30.6346 17.2647 30.6346 17.4839Z" fill="#54544F"/>
<path d="M30.6374 17.4849C30.6374 17.704 30.5797 17.9193 30.4701 18.1091C30.3606 18.2989 30.2029 18.4565 30.0131 18.5661C29.8233 18.6757 29.608 18.7334 29.3888 18.7334C29.1697 18.7334 28.9544 18.6757 28.7646 18.5661L14.7206 10.4529C14.5714 10.3748 14.4395 10.2674 14.3329 10.1371C14.2263 10.0067 14.1471 9.85615 14.1002 9.69443C14.0533 9.5327 14.0396 9.36316 14.0599 9.19599C14.0802 9.02883 14.1341 8.8675 14.2184 8.72171C14.3027 8.57592 14.4155 8.44868 14.5503 8.34765C14.685 8.24662 14.8387 8.17389 15.0023 8.13383C15.1659 8.09376 15.3358 8.0872 15.502 8.11453C15.6682 8.14186 15.8271 8.20252 15.9692 8.29286L30.0131 16.4036C30.2029 16.5132 30.3606 16.6708 30.4701 16.8606C30.5797 17.0504 30.6374 17.2657 30.6374 17.4849Z" fill="#54544F"/>
<path d="M16.5909 9.37177L16.5909 25.6032C16.5909 25.9344 16.4594 26.252 16.2252 26.4861C15.991 26.7203 15.6735 26.8518 15.3423 26.8518C15.0112 26.8518 14.6936 26.7203 14.4594 26.4861C14.2253 26.252 14.0937 25.9344 14.0937 25.6032L14.0937 9.37177C14.0937 9.04063 14.2253 8.72305 14.4594 8.4889C14.6936 8.25475 15.0112 8.1232 15.3423 8.1232C15.6735 8.1232 15.991 8.25475 16.2252 8.4889C16.4594 8.72305 16.5909 9.04063 16.5909 9.37177Z" fill="#54544F"/>
</svg>
