<svg width="34" height="38" viewBox="0 0 34 38" fill="none" xmlns="http://www.w3.org/2000/svg">
<path d="M16.6065 38.0001C16.3982 38.0001 16.1937 37.9452 16.0134 37.8411L0.593088 28.9401C0.412771 28.836 0.263033 28.6862 0.158925 28.5059C0.0548166 28.3256 5.28942e-06 28.121 0 27.9128V10.1202C5.28942e-06 9.91199 0.0548166 9.70744 0.158925 9.52713C0.263033 9.34681 0.412771 9.19708 0.593088 9.09297L16.0086 0.201398C16.1889 0.0972892 16.3935 0.0424805 16.6017 0.0424805C16.8099 0.0424805 17.0145 0.0972892 17.1948 0.201398L32.6151 9.10246C32.7954 9.20657 32.9451 9.3563 33.0492 9.53662C33.1534 9.71693 33.2082 9.92147 33.2082 10.1297V27.9223C33.2082 28.1305 33.1534 28.3351 33.0492 28.5154C32.9451 28.6957 32.7954 28.8454 32.6151 28.9496L17.1948 37.8411C17.0159 37.9444 16.8131 37.9992 16.6065 38.0001ZM2.37235 27.2272L16.6065 35.4427L30.8406 27.2367V10.8129L16.6065 2.59747L2.37235 10.8058V27.2272Z" fill="white"/>
<path d="M1.18615 29.0998C0.977931 29.0998 0.773385 29.045 0.593068 28.9409C0.412751 28.8368 0.263015 28.687 0.15891 28.5067C0.0548046 28.3264 -1.32239e-06 28.1219 0 27.9136C1.32243e-06 27.7054 0.05481 27.5009 0.158917 27.3206L15.5745 0.636354C15.6486 0.4946 15.7507 0.369311 15.8745 0.268024C15.9983 0.166736 16.1414 0.0915445 16.295 0.0469712C16.4487 0.002398 16.6097 -0.0106353 16.7685 0.00865529C16.9273 0.0279459 17.0806 0.0791618 17.2191 0.159222C17.3576 0.239282 17.4785 0.346532 17.5745 0.474519C17.6705 0.602507 17.7396 0.748587 17.7776 0.903971C17.8157 1.05936 17.8219 1.22083 17.796 1.37869C17.77 1.53655 17.7124 1.68752 17.6265 1.82253L2.21812 28.5115C2.11301 28.6916 1.96227 28.8409 1.78109 28.9441C1.59991 29.0474 1.3947 29.1011 1.18615 29.0998Z" fill="white"/>
<path d="M32.028 29.1093C31.8198 29.1093 31.6153 29.0545 31.435 28.9504C31.2546 28.8463 31.1049 28.6965 31.0008 28.5162L15.5758 1.82253C15.4899 1.68752 15.4323 1.53655 15.4064 1.37869C15.3804 1.22083 15.3866 1.05936 15.4247 0.903971C15.4627 0.748587 15.5318 0.602507 15.6278 0.474519C15.7238 0.346532 15.8447 0.239282 15.9832 0.159222C16.1217 0.0791618 16.275 0.0279459 16.4338 0.00865529C16.5926 -0.0106353 16.7537 0.002398 16.9073 0.0469712C17.0609 0.0915445 17.204 0.166736 17.3278 0.268024C17.4516 0.369311 17.5537 0.4946 17.6279 0.636354L33.0481 27.33C33.1522 27.5104 33.2071 27.7149 33.2071 27.9231C33.2071 28.1313 33.1522 28.3359 33.0481 28.5162C32.944 28.6965 32.7943 28.8463 32.614 28.9504C32.4337 29.0545 32.2291 29.1093 32.0209 29.1093H32.028Z" fill="white"/>
<path d="M32.0267 29.1089H1.18618C0.871582 29.1089 0.569874 28.984 0.347423 28.7615C0.124972 28.5391 0 28.2373 0 27.9227C0 27.6082 0.124972 27.3064 0.347423 27.084C0.569874 26.8615 0.871582 26.7366 1.18618 26.7366H32.0267C32.3413 26.7366 32.643 26.8615 32.8655 27.084C33.0879 27.3064 33.2129 27.6082 33.2129 27.9227C33.2129 28.2373 33.0879 28.5391 32.8655 28.7615C32.643 28.984 32.3413 29.1089 32.0267 29.1089Z" fill="white"/>
<path d="M24.3127 15.7625C24.0518 15.762 23.7983 15.6754 23.5916 15.5163C23.3848 15.3571 23.2363 15.1343 23.169 14.8822C23.1017 14.6301 23.1195 14.3629 23.2194 14.1219C23.3194 13.8809 23.496 13.6796 23.7219 13.5491L31.4297 9.10331C31.5647 9.0242 31.7139 8.97256 31.8689 8.95136C32.0239 8.93017 32.1816 8.93985 32.3328 8.97983C32.484 9.01982 32.6259 9.08932 32.7501 9.18434C32.8744 9.27937 32.9787 9.39803 33.0569 9.5335C33.1351 9.66898 33.1857 9.81859 33.2059 9.97371C33.2261 10.1288 33.2153 10.2864 33.1744 10.4374C33.1334 10.5884 33.0629 10.7297 32.9671 10.8534C32.8712 10.977 32.7519 11.0804 32.6159 11.1578L24.9081 15.6036C24.7271 15.7081 24.5217 15.7629 24.3127 15.7625Z" fill="white"/>
<path d="M8.89732 15.7582C8.6891 15.7582 8.48455 15.7033 8.30423 15.5992L0.594089 11.1487C0.323871 10.9903 0.12728 10.7314 0.0472177 10.4286C-0.0328445 10.1258 0.0101218 9.80355 0.16674 9.53229C0.323359 9.26102 0.580915 9.06272 0.883202 8.98065C1.18549 8.89858 1.50797 8.93941 1.78027 9.09423L9.49041 13.5448C9.71653 13.6753 9.89325 13.8768 9.99316 14.1181C10.0931 14.3593 10.1106 14.6268 10.043 14.879C9.97544 15.1312 9.82653 15.3541 9.61938 15.513C9.41224 15.672 9.15843 15.7581 8.89732 15.7582Z" fill="white"/>
<path d="M16.6081 37.9999C16.2935 37.9999 15.9917 37.8749 15.7693 37.6524C15.5468 37.43 15.4219 37.1283 15.4219 36.8137V27.9174C15.4219 27.6028 15.5468 27.3011 15.7693 27.0786C15.9917 26.8562 16.2935 26.7312 16.6081 26.7312C16.9226 26.7312 17.2244 26.8562 17.4468 27.0786C17.6693 27.3011 17.7942 27.6028 17.7942 27.9174V36.8137C17.7942 37.1283 17.6693 37.43 17.4468 37.6524C17.2244 37.8749 16.9226 37.9999 16.6081 37.9999Z" fill="white"/>
<path d="M16.61 29.1041C16.4018 29.1041 16.1973 29.0493 16.0169 28.9452C15.8366 28.8411 15.6869 28.6914 15.5828 28.5111L7.87264 15.1642C7.78682 15.0292 7.72919 14.8782 7.70323 14.7204C7.67726 14.5625 7.6835 14.401 7.72156 14.2456C7.75962 14.0903 7.82872 13.9442 7.9247 13.8162C8.02068 13.6882 8.14156 13.581 8.28006 13.5009C8.41856 13.4208 8.57183 13.3696 8.73064 13.3503C8.88945 13.331 9.05052 13.3441 9.20417 13.3886C9.35781 13.4332 9.50085 13.5084 9.62468 13.6097C9.74851 13.711 9.85057 13.8363 9.92473 13.978L17.6372 27.3249C17.7413 27.5052 17.7962 27.7097 17.7962 27.918C17.7962 28.1262 17.7414 28.3307 17.6372 28.511C17.5331 28.6914 17.3834 28.8411 17.2031 28.9452C17.0228 29.0493 16.8182 29.1041 16.61 29.1041Z" fill="white"/>
<path d="M16.608 29.1048C16.3998 29.1048 16.1953 29.0499 16.0149 28.9458C15.8346 28.8417 15.6849 28.692 15.5808 28.5117C15.4767 28.3313 15.4219 28.1268 15.4219 27.9186C15.4219 27.7104 15.4767 27.5058 15.5808 27.3255L23.2886 13.9834C23.3627 13.8416 23.4648 13.7164 23.5886 13.6151C23.7124 13.5138 23.8555 13.4386 24.0091 13.394C24.1628 13.3494 24.3238 13.3364 24.4826 13.3557C24.6415 13.375 24.7947 13.4262 24.9332 13.5063C25.0717 13.5863 25.1926 13.6936 25.2886 13.8216C25.3846 13.9496 25.4537 14.0956 25.4917 14.251C25.5298 14.4064 25.536 14.5679 25.5101 14.7257C25.4841 14.8836 25.4265 15.0346 25.3406 15.1696L17.6352 28.5117C17.5311 28.692 17.3814 28.8417 17.2011 28.9458C17.0208 29.0499 16.8162 29.1048 16.608 29.1048Z" fill="white"/>
<path d="M24.3135 15.762H8.89321C8.57861 15.762 8.27691 15.637 8.05445 15.4146C7.832 15.1921 7.70703 14.8904 7.70703 14.5758C7.70703 14.2612 7.832 13.9595 8.05445 13.7371C8.27691 13.5146 8.57861 13.3896 8.89321 13.3896H24.3135C24.6281 13.3896 24.9298 13.5146 25.1522 13.7371C25.3747 13.9595 25.4997 14.2612 25.4997 14.5758C25.4997 14.8904 25.3747 15.1921 25.1522 15.4146C24.9298 15.637 24.6281 15.762 24.3135 15.762Z" fill="white"/>
</svg>
