<svg width="119" height="25" viewBox="0 0 119 25" fill="none" xmlns="http://www.w3.org/2000/svg">
<path d="M37.1282 7.82056C39.325 7.82056 40.5113 8.87504 40.5113 10.6325C40.5113 12.1264 39.4568 13.1808 37.6993 13.3566L40.5113 17.0473H38.3145L35.6343 13.4005H35.1071V17.0473H33.2617V7.82056H37.1282ZM35.1071 9.49015V11.7309H37.1282C38.1387 11.7309 38.622 11.3794 38.622 10.5886C38.622 9.84165 38.0948 9.49015 37.1282 9.49015H35.1071Z" fill="white"/>
<path d="M57.9122 12.3902C57.9122 15.1143 55.8911 17.1354 53.0791 17.1354C50.2672 17.1354 48.2461 15.1143 48.2461 12.3902C48.2461 9.66611 50.2232 7.64502 53.0791 7.64502C55.935 7.64502 57.9122 9.66611 57.9122 12.3902ZM50.1793 12.3902C50.1793 14.1916 51.4095 15.3779 53.0791 15.3779C54.7927 15.3779 55.979 14.1477 55.979 12.3902C55.979 10.5888 54.7487 9.40249 53.0791 9.40249C51.4095 9.40249 50.1793 10.6327 50.1793 12.3902Z" fill="white"/>
<path d="M74.4319 9.71004L72.8502 10.6766C72.3229 9.88578 71.4881 9.40248 70.4776 9.40248C68.808 9.40248 67.5778 10.6327 67.5778 12.3902C67.5778 14.2355 68.8519 15.3779 70.4776 15.3779C71.4881 15.3779 72.3229 14.9385 72.8502 14.1037L74.344 15.1582C73.5092 16.3445 72.1472 17.0914 70.4776 17.0914C67.6656 17.0914 65.6445 15.0703 65.6445 12.3462C65.6445 9.57823 67.6217 7.60107 70.4776 7.60107C72.1911 7.64501 73.685 8.39194 74.4319 9.71004Z" fill="white"/>
<path d="M90.6858 9.71004L89.1041 10.6766C88.5768 9.88578 87.742 9.40248 86.7315 9.40248C85.0619 9.40248 83.8317 10.6327 83.8317 12.3902C83.8317 14.2355 85.1058 15.3779 86.7315 15.3779C87.742 15.3779 88.5768 14.9385 89.1041 14.1037L90.5979 15.1582C89.7631 16.3445 88.4011 17.0914 86.7315 17.0914C83.9195 17.0914 81.8984 15.0703 81.8984 12.3462C81.8984 9.57823 83.8756 7.60107 86.7315 7.60107C88.445 7.64501 89.9389 8.39194 90.6858 9.71004Z" fill="white"/>
<path d="M107.822 12.3902C107.822 15.1143 105.801 17.1354 102.989 17.1354C100.177 17.1354 98.1562 15.1143 98.1562 12.3902C98.1562 9.66611 100.133 7.64502 102.989 7.64502C105.845 7.64502 107.822 9.66611 107.822 12.3902ZM100.089 12.3902C100.089 14.1916 101.32 15.3779 102.989 15.3779C104.703 15.3779 105.889 14.1477 105.889 12.3902C105.889 10.5888 104.659 9.40249 102.989 9.40249C101.32 9.40249 100.089 10.6327 100.089 12.3902Z" fill="white"/>
<path d="M111.555 11.4236V8.3041H110.281V7.82079H113.357V8.3041H112.083V11.4236H111.555ZM117.487 11.4236V8.52378L116.345 11.0282H115.773L114.587 8.52378V11.4236H114.06V7.77686H114.807L116.037 10.3691L117.267 7.77686H118.014V11.4236H117.487Z" fill="white"/>
<path d="M25 25H0V0H25V25ZM1.3181 23.6819H23.6819V1.3181H1.3181V23.6819Z" fill="white"/>
<path d="M12.0652 12.6329L7.87109 8.43872L3.67696 12.6329L7.87109 16.827L12.0652 12.6329Z" fill="white"/>
<path d="M16.7996 17.3816L12.6055 13.1875L8.41134 17.3816L12.6055 21.5758L16.7996 17.3816Z" fill="white"/>
<path d="M16.8621 7.86674L12.668 3.67261L8.47384 7.86674L12.668 12.0609L16.8621 7.86674Z" fill="white"/>
<path d="M21.5691 12.5845L17.375 8.39038L13.1809 12.5845L17.375 16.7787L21.5691 12.5845Z" fill="white"/>
</svg>
