<svg width="19" height="21" viewBox="0 0 19 21" xmlns="http://www.w3.org/2000/svg">
<path d="M18.4953 19.8125L14.2188 14.1374C17.0626 11.2532 17.4518 6.6377 14.943 3.30866C13.3577 1.2059 10.9367 0 8.30104 0C6.48628 0 4.75863 0.579278 3.30551 1.67406C-0.353944 4.43335 -1.08708 9.65344 1.66991 13.3109C3.2552 15.4137 5.67621 16.6202 8.31255 16.6202C9.87088 16.6202 11.3536 16.1688 12.666 15.3552L16.9195 21L18.4953 19.8125ZM3.24501 12.1238C1.14258 9.33454 1.70213 5.35323 4.49201 3.24981C5.60092 2.41443 6.91794 1.97257 8.30104 1.97257C10.3121 1.97257 12.1587 2.89278 13.3673 4.49615C15.4707 7.28734 14.9115 11.2686 12.1203 13.3714C11.0127 14.2068 9.69565 14.648 8.31255 14.648C6.30151 14.648 4.4542 13.7284 3.24501 12.1238Z"/>
</svg>
