<svg width="157" height="25" viewBox="0 0 157 25" fill="none" xmlns="http://www.w3.org/2000/svg">
<path d="M18.0016 10.8964C18.9675 10.8964 19.7139 11.6872 19.7139 12.6099C19.7139 13.5326 18.9236 14.3234 18.0016 14.3234C17.0797 14.3234 16.2894 13.5326 16.2894 12.6099C16.2894 11.6872 17.0797 10.8964 18.0016 10.8964ZM16.8162 5.88759C17.1675 5.5361 17.6065 5.40429 18.0455 5.40429C18.4846 5.40429 18.9236 5.58004 19.2748 5.88759C19.9334 6.54664 19.9334 7.64506 19.2748 8.30411C18.6163 8.96316 17.5187 8.96316 16.8601 8.30411C16.1577 7.64506 16.1577 6.54664 16.8162 5.88759ZM10.7575 7.07388C10.7575 6.10728 11.5478 5.36035 12.4698 5.36035C13.3917 5.36035 14.182 6.15121 14.182 7.07388C14.182 7.99656 13.4356 8.78742 12.4698 8.78742C11.5039 8.78742 10.7575 8.04049 10.7575 7.07388ZM5.75247 8.30411C5.44515 7.99656 5.26953 7.55719 5.26953 7.07388C5.26953 6.63452 5.44515 6.19515 5.75247 5.84366C6.0598 5.5361 6.49884 5.36035 6.98178 5.36035C7.42082 5.36035 7.85986 5.5361 8.21109 5.84366C8.51841 6.15121 8.69403 6.59058 8.69403 7.07388C8.69403 7.51325 8.51841 7.95262 8.21109 8.30411C7.50863 8.96316 6.41103 8.96316 5.75247 8.30411ZM6.98178 14.3234C6.0159 14.3234 5.26953 13.5326 5.26953 12.6099C5.26953 11.6872 6.0598 10.8964 6.98178 10.8964C7.90376 10.8964 8.69403 11.6872 8.69403 12.6099C8.69403 13.5326 7.90376 14.3234 6.98178 14.3234ZM8.16718 19.3762C7.50863 20.0352 6.41103 20.0352 5.75247 19.3762C5.44515 19.0686 5.26953 18.6292 5.26953 18.1459C5.26953 17.7066 5.44515 17.2672 5.75247 16.9157C6.0598 16.6082 6.49884 16.4324 6.98178 16.4324C7.42082 16.4324 7.85986 16.6082 8.21109 16.9157C8.51841 17.2233 8.69403 17.6626 8.69403 18.1459C8.69403 18.5853 8.51841 19.0247 8.16718 19.3762ZM14.2259 18.1459C14.2259 19.1125 13.4356 19.8595 12.5137 19.8595C11.5917 19.8595 10.8014 19.0686 10.8014 18.1459C10.8014 17.2233 11.5917 16.4324 12.5137 16.4324C13.4356 16.4324 14.2259 17.1793 14.2259 18.1459ZM19.2309 19.3762C18.5724 20.0352 17.4748 20.0352 16.8162 19.3762C16.1577 18.7171 16.1577 17.6187 16.8162 16.9596C17.1675 16.6082 17.6065 16.4763 18.0455 16.4763C18.4846 16.4763 18.9236 16.6521 19.2748 16.9596C19.8895 17.6187 19.8895 18.6732 19.2309 19.3762ZM18.0016 10.8964C18.9675 10.8964 19.7139 11.6872 19.7139 12.6099C19.7139 13.5326 18.9236 14.3234 18.0016 14.3234C17.0797 14.3234 16.2894 13.5326 16.2894 12.6099C16.2894 11.6872 17.0797 10.8964 18.0016 10.8964ZM16.8162 5.88759C17.1675 5.5361 17.6065 5.40429 18.0455 5.40429C18.4846 5.40429 18.9236 5.58004 19.2748 5.88759C19.9334 6.54664 19.9334 7.64506 19.2748 8.30411C18.6163 8.96316 17.5187 8.96316 16.8601 8.30411C16.1577 7.64506 16.1577 6.54664 16.8162 5.88759ZM10.7575 7.07388C10.7575 6.10728 11.5478 5.36035 12.4698 5.36035C13.3917 5.36035 14.182 6.15121 14.182 7.07388C14.182 7.99656 13.4356 8.78742 12.4698 8.78742C11.5039 8.78742 10.7575 8.04049 10.7575 7.07388ZM5.75247 8.30411C5.44515 7.99656 5.26953 7.55719 5.26953 7.07388C5.26953 6.63452 5.44515 6.19515 5.75247 5.84366C6.0598 5.5361 6.49884 5.36035 6.98178 5.36035C7.42082 5.36035 7.85986 5.5361 8.21109 5.84366C8.51841 6.15121 8.69403 6.59058 8.69403 7.07388C8.69403 7.51325 8.51841 7.95262 8.21109 8.30411C7.50863 8.96316 6.41103 8.96316 5.75247 8.30411ZM6.98178 14.3234C6.0159 14.3234 5.26953 13.5326 5.26953 12.6099C5.26953 11.6872 6.0598 10.8964 6.98178 10.8964C7.90376 10.8964 8.69403 11.6872 8.69403 12.6099C8.69403 13.5326 7.90376 14.3234 6.98178 14.3234ZM8.16718 19.3762C7.50863 20.0352 6.41103 20.0352 5.75247 19.3762C5.44515 19.0686 5.26953 18.6292 5.26953 18.1459C5.26953 17.7066 5.44515 17.2672 5.75247 16.9157C6.0598 16.6082 6.49884 16.4324 6.98178 16.4324C7.42082 16.4324 7.85986 16.6082 8.21109 16.9157C8.51841 17.2233 8.69403 17.6626 8.69403 18.1459C8.69403 18.5853 8.51841 19.0247 8.16718 19.3762ZM14.2259 18.1459C14.2259 19.1125 13.4356 19.8595 12.5137 19.8595C11.5917 19.8595 10.8014 19.0686 10.8014 18.1459C10.8014 17.2233 11.5917 16.4324 12.5137 16.4324C13.4356 16.4324 14.2259 17.1793 14.2259 18.1459ZM19.2309 19.3762C18.5724 20.0352 17.4748 20.0352 16.8162 19.3762C16.1577 18.7171 16.1577 17.6187 16.8162 16.9596C17.1675 16.6082 17.6065 16.4763 18.0455 16.4763C18.4846 16.4763 18.9236 16.6521 19.2748 16.9596C19.8895 17.6187 19.8895 18.6732 19.2309 19.3762Z" fill="white"/>
<path d="M40.1296 9.4025H37.2758V16.8717H35.4319V9.4025H32.5781V7.68896H40.0857V9.4025H40.1296Z" fill="white"/>
<path d="M54.7513 16.8717H47.9023V7.68896H54.7074V9.35856H49.7463V11.4236H54.4879V13.0932H49.7463V15.2021H54.7513V16.8717Z" fill="white"/>
<path d="M71.4331 9.5782L69.8526 10.5448C69.3257 9.75395 68.4916 9.27064 67.4818 9.27064C65.8134 9.27064 64.5841 10.5009 64.5841 12.2583C64.5841 14.1037 65.8573 15.246 67.4818 15.246C68.4916 15.246 69.3257 14.8067 69.8526 13.9719L71.3453 15.0264C70.5111 16.2127 69.1501 16.9596 67.4818 16.9596C64.6719 16.9596 62.6523 14.9385 62.6523 12.2144C62.6523 9.44639 64.628 7.46924 67.4818 7.46924C69.194 7.51318 70.6867 8.30404 71.4331 9.5782Z" fill="white"/>
<path d="M86.3601 9.4025H83.5063V16.8717H81.6623V9.4025H78.8086V7.68896H86.3162V9.4025H86.3601Z" fill="white"/>
<path d="M103.089 12.3023C103.089 15.0264 101.069 17.0475 98.2591 17.0475C95.4493 17.0475 93.4297 15.0264 93.4297 12.3023C93.4297 9.57822 95.4054 7.55713 98.2591 7.55713C101.113 7.55713 103.089 9.53428 103.089 12.3023ZM95.3615 12.3023C95.3615 14.1037 96.5908 15.29 98.2591 15.29C99.9274 15.29 101.157 14.0598 101.157 12.3023C101.157 10.5009 99.9274 9.3146 98.2591 9.3146C96.5908 9.27066 95.3615 10.5009 95.3615 12.3023Z" fill="white"/>
<path d="M119.507 16.8717H117.795L113.141 10.7206V16.8717H111.297V7.68896H113.009L117.663 13.8401V7.68896H119.507V16.8717Z" fill="white"/>
<path d="M129.957 16.8717H128.113V7.68896H129.957V16.8717Z" fill="white"/>
<path d="M146.902 9.5782L145.321 10.5448C144.794 9.75395 143.96 9.27064 142.951 9.27064C141.282 9.27064 140.053 10.5009 140.053 12.2583C140.053 14.1037 141.326 15.246 142.951 15.246C143.96 15.246 144.794 14.8067 145.321 13.9719L146.814 15.0264C146.024 16.2127 144.619 16.9596 142.951 16.9596C140.141 16.9596 138.121 14.9385 138.121 12.2144C138.121 9.44639 140.097 7.46924 142.951 7.46924C144.663 7.51318 146.155 8.30404 146.902 9.5782Z" fill="white"/>
<path d="M150.547 11.3357V8.21621H149.273V7.7329H152.347V8.21621H151.073V11.3357H150.547ZM156.474 11.3357V8.43589L155.332 10.9403H154.761L153.576 8.43589V11.3357H153.049V7.68896H153.796L155.025 10.2812L156.254 7.68896H157.001V11.3357H156.474Z" fill="white"/>
<path d="M24.9813 25H0V0H24.9813V25ZM1.31711 23.6819H23.6642V1.3181H1.31711V23.6819Z" fill="white"/>
<path d="M15.8928 13.4006C15.805 13.137 15.7611 12.8733 15.7611 12.6097C15.7611 12.3461 15.805 12.1264 15.8928 11.9067H14.4001L17.166 9.13871C16.6831 8.91903 16.3319 8.56753 16.0684 8.08423L13.1708 10.8962V9.22658C12.9513 9.31446 12.7318 9.35839 12.4683 9.35839C12.2049 9.35839 11.8976 9.31446 11.6781 9.18265V10.7644L8.99994 8.08423C8.78042 8.5236 8.38529 8.91903 7.90234 9.13871L10.6683 11.9067H9.17555C9.26336 12.1264 9.30727 12.3461 9.30727 12.6097C9.30727 12.8733 9.26336 13.1809 9.17555 13.4006H10.7561L8.07796 16.0807C8.517 16.3004 8.91213 16.6958 9.13165 17.1791L11.7659 14.5429V15.9928C12.0293 15.905 12.2927 15.8171 12.5561 15.8171C12.8196 15.8171 13.0391 15.861 13.2586 15.9489V14.4551L15.9806 17.1791C16.2002 16.6958 16.5514 16.3443 17.0343 16.0807L14.3562 13.4006H15.8928Z" fill="white"/>
</svg>
