<svg width="30" height="29" viewBox="0 0 30 29" fill="none" xmlns="http://www.w3.org/2000/svg">
<path d="M16.6992 16.4116L19.1352 18.8475" stroke="#54544F" stroke-width="0.6" stroke-linecap="round"/>
<path d="M10.6914 10.5276L13.1274 12.9636" stroke="#54544F" stroke-width="0.6" stroke-linecap="round"/>
<path fill-rule="evenodd" clip-rule="evenodd" d="M24.5503 3.85657L26.1727 5.47901L17.2891 14.3626L18.0081 15.0579L26.8798 6.18612C27.2703 5.79559 27.2703 5.16243 26.8798 4.7719L25.2574 3.14946C24.8669 2.75894 24.2337 2.75894 23.8432 3.14946L14.9207 12.072L15.6396 12.7673L24.5503 3.85657ZM12.867 15.5399L12.1542 14.8385L3.38274 23.6099C2.99221 24.0004 2.99221 24.6336 3.38274 25.0241L5.00518 26.6465C5.39571 27.0371 6.02887 27.0371 6.41939 26.6465L15.2153 17.8507L14.5025 17.1493L5.71229 25.9394L4.08984 24.317L12.867 15.5399Z" fill="#54544F"/>
<path fill-rule="evenodd" clip-rule="evenodd" d="M7.07027 2.09988C7.28462 2.11682 7.50036 2.14896 7.71627 2.1971C10.2022 2.75135 11.7681 5.21591 11.2139 7.70184C11.1039 8.19532 10.9186 8.65255 10.6728 9.06413L11.4094 9.77223C11.7695 9.22219 12.0384 8.59907 12.1899 7.91945C12.8644 4.89447 10.9589 1.8955 7.93389 1.22106C7.20464 1.05847 6.4769 1.04582 5.78288 1.16265C6.29976 1.35968 6.73908 1.68813 7.07027 2.09988ZM1.64696 4.28101C1.46877 4.6553 1.32953 5.05532 1.2355 5.4771C0.561059 8.50208 2.46655 11.5011 5.49154 12.1755C7.14144 12.5433 8.78361 12.1437 10.0451 11.2135L9.35669 10.4768C8.33323 11.1926 7.02418 11.4927 5.70915 11.1995C3.25032 10.6512 1.69154 8.23417 2.19415 5.77603C1.88707 5.34007 1.69417 4.8252 1.64696 4.28101Z" fill="#54544F"/>
<path fill-rule="evenodd" clip-rule="evenodd" d="M2.64585 4.45698C2.78592 5.32014 3.43593 6.05281 4.34155 6.25473C5.52898 6.51947 6.70619 5.77149 6.97094 4.58406C7.20505 3.53403 6.64724 2.49198 5.69392 2.08182C5.42433 1.64046 5.58829 1.21898 5.7785 1.15383L5.99685 1.12507C7.43965 1.69243 8.29494 3.24099 7.94697 4.80167C7.56205 6.52815 5.85041 7.61569 4.12394 7.23076C2.70399 6.91418 1.71624 5.70018 1.6244 4.31858L1.62859 4.3235C1.78716 4.05125 2.28586 4.10332 2.64585 4.45698Z" fill="#54544F"/>
<path fill-rule="evenodd" clip-rule="evenodd" d="M22.6788 26.9751C22.4644 26.9617 22.2483 26.933 22.0317 26.8884C19.5371 26.3747 17.9313 23.9359 18.4451 21.4413C18.547 20.9464 18.7247 20.4865 18.9636 20.0712L18.2155 19.3751C17.8646 19.9308 17.6061 20.5579 17.4657 21.2396C16.8405 24.2751 18.7945 27.2427 21.83 27.8679C22.5617 28.0186 23.2895 28.0194 23.9814 27.8914C23.4614 27.7028 23.0167 27.3815 22.6788 26.9751ZM28.0661 24.7068C28.2383 24.3295 28.3711 23.927 28.4584 23.5035C29.0835 20.468 27.1295 17.5004 24.094 16.8752C22.438 16.5342 20.8022 16.9607 19.5559 17.9117L20.2562 18.6371C21.268 17.9044 22.5723 17.5828 23.8923 17.8547C26.3598 18.3629 27.9577 20.7545 27.4949 23.2206C27.809 23.6516 28.0101 24.1634 28.0661 24.7068Z" fill="#54544F"/>
<path fill-rule="evenodd" clip-rule="evenodd" d="M27.0624 24.5472C26.9086 23.6861 26.2467 22.9637 25.3376 22.7765C24.146 22.531 22.9811 23.2981 22.7357 24.4896C22.5188 25.543 23.093 26.5755 24.0523 26.9704C24.3295 27.4075 24.1723 27.8318 23.9831 27.9001L23.7659 27.9323C22.314 27.3885 21.4337 25.854 21.7563 24.2879C22.1131 22.5554 23.8068 21.4402 25.5393 21.797C26.9645 22.0905 27.972 23.2887 28.0859 24.669L28.081 24.6634C27.927 24.938 27.4281 24.8943 27.0624 24.5472Z" fill="#54544F"/>
<path fill-rule="evenodd" clip-rule="evenodd" d="M8.73047 11.5386L18.4391 21.2473L18.9282 20.3222L9.51813 10.9121L8.73047 11.5386ZM10.9422 9.09123L20.3899 18.539L21.4609 18.1957L11.4982 8.23303L10.9422 9.09123Z" fill="#54544F"/>
<circle cx="9.56494" cy="9.3446" r="0.385252" fill="#54544F"/>
<circle cx="20.311" cy="19.9455" r="0.385252" fill="#54544F"/>
</svg>
