<svg width="16" height="14" viewBox="0 0 16 14" fill="none" xmlns="http://www.w3.org/2000/svg">
<path fill-rule="evenodd" clip-rule="evenodd" d="M15.1392 1.06188C14.5368 1.43798 13.8711 1.71151 13.1597 1.85787C12.5929 1.21991 11.783 0.821289 10.8863 0.821289C9.16741 0.821289 7.77248 2.29235 7.77248 4.10657C7.77248 4.36425 7.79924 4.61401 7.85275 4.8546C5.26395 4.71742 2.96906 3.41107 1.43184 1.42089C1.16348 1.9079 1.01024 2.47289 1.01024 3.07457C1.01024 4.21373 1.55994 5.21945 2.39625 5.80862C1.88628 5.79278 1.40509 5.6435 0.984295 5.39916V5.43919C0.984295 7.03158 2.05816 8.36004 3.48431 8.66067C3.22324 8.73781 2.94758 8.77659 2.6634 8.77659C2.46274 8.77659 2.26694 8.75657 2.07722 8.71821C2.47368 10.0229 3.62336 10.9732 4.98667 10.9986C3.92091 11.8801 2.57706 12.4054 1.11807 12.4054C0.866733 12.4054 0.618232 12.3904 0.375 12.3604C1.75331 13.2911 3.39148 13.8352 5.15004 13.8352C10.8802 13.8352 14.0126 8.82996 14.0126 4.48809C14.0126 4.34507 14.0102 4.20247 14.0049 4.06237C14.6134 3.59912 15.142 3.02079 15.5579 2.36198C15.0001 2.623 14.3993 2.79979 13.7694 2.87902C14.4127 2.47289 14.9065 1.8291 15.1392 1.06188Z" fill="white"/>
</svg>
